<svg
  width="24"
  height="24"
  viewBox="0 0 24 24"
  fill="none"
  xmlns="http://www.w3.org/2000/svg"
>
  <path
    d="M17.6914 3.62252C18.3686 3.62828 18.9851 3.92422 19.5302 4.4692C20.0023 4.94129 20.3715 5.43949 20.5 6.00924C20.6373 6.61839 20.4705 7.1686 20.1728 7.66549C19.8883 8.14024 19.449 8.62599 18.9365 9.14694C18.4319 9.65976 17.7526 10.3084 17.0302 11.0307C15.4765 12.5844 12.5471 14.745 10.0547 16.4897C8.79893 17.3687 7.63794 18.1536 6.79098 18.7182C6.36743 19.0006 6.02183 19.2281 5.78219 19.3852C5.77133 19.3923 5.76039 19.3989 5.74997 19.4057V20.0005C5.7498 20.3036 5.56713 20.5768 5.28707 20.6928C5.00691 20.8089 4.68419 20.7451 4.46969 20.5307L3.46969 19.5307C3.2553 19.3163 3.19076 18.9935 3.30661 18.7133C3.42269 18.4331 3.69662 18.2505 3.99997 18.2505H4.60543C4.62447 18.2228 4.64473 18.1934 4.66598 18.1626C4.84812 17.8982 5.10972 17.5179 5.43063 17.0561C6.07244 16.1325 6.94969 14.8798 7.88961 13.5639C9.74787 10.9624 11.915 8.02398 12.9697 6.9692C13.4329 6.50598 13.9702 5.93811 14.4316 5.48483C14.9131 5.0118 15.4174 4.55561 15.9345 4.21725C16.4492 3.88054 17.0419 3.617 17.6914 3.62252ZM17.6787 5.12252C17.4459 5.12054 17.1477 5.21579 16.7558 5.47213C16.3663 5.72704 15.9476 6.09907 15.4834 6.55514C14.9991 7.03089 14.567 7.49398 14.0302 8.03072C13.0849 8.97628 11.0019 11.7878 9.11032 14.436C8.68351 15.0335 8.26938 15.618 7.88473 16.1645C8.3017 15.8787 8.74337 15.5766 9.19528 15.2602C11.7026 13.505 14.5235 11.4154 15.9697 9.9692C16.7472 9.19173 17.3489 8.62091 17.8672 8.0942C18.3773 7.57572 18.7029 7.20082 18.8867 6.89401C19.0571 6.60948 19.0625 6.45634 19.0361 6.33932C19.0008 6.18287 18.8707 5.93172 18.4697 5.53072C18.1416 5.20266 17.8838 5.12428 17.6787 5.12252Z"
    fill="currentColor"
  />
</svg>
