<svg
  width="24"
  height="24"
  viewBox="0 0 24 24"
  fill="none"
  xmlns="http://www.w3.org/2000/svg"
>
  <path
    d="M13.7499 14.5V13.6826C13.1345 13.573 12.5654 13.3313 12.0722 12.9873L4.53022 20.5303C4.23732 20.8232 3.76256 20.8232 3.46967 20.5303C3.17678 20.2374 3.17678 19.7626 3.46967 19.4697L11.0117 11.9268C10.6681 11.4338 10.4269 10.865 10.3173 10.25H9.49994C9.08573 10.25 8.74994 9.91421 8.74994 9.5C8.74994 9.08579 9.08573 8.75 9.49994 8.75H10.3173C10.4259 8.1413 10.6631 7.57725 11.0009 7.08789L10.457 6.51758C10.1715 6.21769 10.1827 5.74266 10.4824 5.45703C10.7823 5.17156 11.2573 5.18277 11.5429 5.48242L12.0566 6.02246C12.5531 5.67311 13.1283 5.42822 13.7499 5.31738V4.5C13.7499 4.08579 14.0857 3.75 14.4999 3.75C14.9142 3.75 15.2499 4.08579 15.2499 4.5V5.31738C15.8713 5.42817 16.446 5.67335 16.9423 6.02246L17.457 5.48242C17.7426 5.18277 18.2176 5.17156 18.5175 5.45703C18.8172 5.74266 18.8284 6.21769 18.5429 6.51758L17.998 7.08789C18.336 7.57735 18.574 8.14111 18.6826 8.75H19.4999C19.9142 8.75 20.2499 9.08579 20.2499 9.5C20.2499 9.91421 19.9142 10.25 19.4999 10.25H18.6826C18.5724 10.868 18.3284 11.4391 17.9824 11.9336L18.5644 12.5986C18.8369 12.9102 18.8054 13.3835 18.4941 13.6562C18.1824 13.929 17.7083 13.8976 17.4355 13.5859L16.9179 12.9941C16.4272 13.3343 15.8612 13.5726 15.2499 13.6816V14.5C15.2499 14.9142 14.9142 15.25 14.4999 15.25C14.0857 15.25 13.7499 14.9142 13.7499 14.5ZM14.4999 6.75C13.7305 6.75 13.0361 7.06515 12.5361 7.5752C12.0493 8.07196 11.7499 8.75044 11.7499 9.5C11.7499 11.0188 12.9812 12.25 14.4999 12.25C15.2694 12.25 15.9638 11.9349 16.4638 11.4248C16.9506 10.928 17.2499 10.2496 17.2499 9.5C17.2499 8.75044 16.9506 8.07196 16.4638 7.5752C15.9638 7.06515 15.2694 6.75 14.4999 6.75Z"
    fill="currentColor"
  />
</svg>
