<svg
  width="24"
  height="24"
  viewBox="0 0 24 24"
  fill="none"
  xmlns="http://www.w3.org/2000/svg"
>
  <path
    d="M17.2499 10.6152C17.2499 8.48056 15.5194 6.75008 13.3847 6.75C11.25 6.75 9.51956 8.48051 9.51947 10.6152C9.51947 11.6828 9.95099 12.6483 10.6513 13.3486C10.9442 13.6415 10.9442 14.1163 10.6513 14.4092L6.53022 18.5303C6.23732 18.8232 5.76256 18.8232 5.46967 18.5303C5.17678 18.2374 5.17678 17.7626 5.46967 17.4697L9.09662 13.8418C8.42033 12.9442 8.01947 11.8259 8.01947 10.6152C8.01956 7.65208 10.4215 5.25 13.3847 5.25C16.3478 5.25008 18.7499 7.65213 18.7499 10.6152C18.7499 11.0294 18.4142 11.3652 17.9999 11.3652C17.5857 11.3652 17.2499 11.0294 17.2499 10.6152Z"
    fill="currentColor"
  />
</svg>
