<svg
  width="24"
  height="24"
  viewBox="0 0 24 24"
  fill="none"
  xmlns="http://www.w3.org/2000/svg"
>
  <path
    d="M15.9999 10.25C16.4142 10.25 16.7499 10.5858 16.7499 11C16.7499 11.4142 16.4142 11.75 15.9999 11.75H15.955C15.5408 11.75 15.205 11.4142 15.205 11C15.205 10.5858 15.5408 10.25 15.955 10.25H15.9999ZM16.4697 6.46973C16.7626 6.17683 17.2373 6.17683 17.5302 6.46973L18.2353 7.1748C18.2433 7.1176 18.2499 7.05948 18.2499 7C18.2499 6.30964 17.6903 5.75 16.9999 5.75C16.3096 5.75 15.7499 6.30964 15.7499 7C15.7499 7.34539 15.8891 7.65676 16.1162 7.88379C16.2568 8.02441 16.3358 8.2152 16.3359 8.41406C16.3359 8.6129 16.2567 8.8037 16.1162 8.94434L4.53022 20.5303C4.23732 20.8232 3.76256 20.8232 3.46967 20.5303C3.17678 20.2374 3.17678 19.7626 3.46967 19.4697L14.4697 8.46973L14.5986 8.33984C14.377 7.94335 14.2499 7.48628 14.2499 7C14.2499 5.48122 15.4812 4.25 16.9999 4.25C18.5187 4.25 19.7499 5.48122 19.7499 7C19.7499 7.75918 19.4411 8.44751 18.9443 8.94434C18.8036 9.08499 18.6129 9.16406 18.414 9.16406C18.2151 9.16402 18.0243 9.08495 17.8837 8.94434L16.4697 7.53027C16.1768 7.23738 16.1768 6.76262 16.4697 6.46973ZM12.4697 6.46973C12.7626 6.17683 13.2373 6.17683 13.5302 6.46973C13.8231 6.76262 13.8231 7.23738 13.5302 7.53027L13.0302 8.03027C12.7373 8.32317 12.2626 8.32317 11.9697 8.03027C11.6768 7.73738 11.6768 7.26262 11.9697 6.96973L12.4697 6.46973Z"
    fill="currentColor"
  />
</svg>
